<svg xmlns="http://www.w3.org/2000/svg" xmlns:xlink="http://www.w3.org/1999/xlink" width="816" zoomAndPan="magnify" viewBox="0 0 612 791.999994" height="1056" preserveAspectRatio="xMidYMid meet" version="1.0"><defs><clipPath id="1c8976f08f"><path d="M 305 369 L 487.777344 369 L 487.777344 538 L 305 538 Z M 305 369 " clip-rule="nonzero"/></clipPath><clipPath id="2605f379c0"><path d="M 8 90 L 481 90 L 481 705 L 8 705 Z M 8 90 " clip-rule="nonzero"/></clipPath><clipPath id="7cccfd589e"><path d="M 291.246094 -43.4375 L 728.128906 425.960938 L 288.378906 835.25 L -148.503906 365.851562 Z M 291.246094 -43.4375 " clip-rule="nonzero"/></clipPath><clipPath id="477ea471f8"><path d="M 291.246094 -43.4375 L 728.128906 425.960938 L 288.378906 835.25 L -148.503906 365.851562 Z M 291.246094 -43.4375 " clip-rule="nonzero"/></clipPath><clipPath id="4b03aad0f7"><path d="M 291.246094 -43.4375 L 728.128906 425.960938 L 288.378906 835.25 L -148.503906 365.851562 Z M 291.246094 -43.4375 " clip-rule="nonzero"/></clipPath><clipPath id="0bccd8775b"><path d="M 542 459 L 569 459 L 569 491 L 542 491 Z M 542 459 " clip-rule="nonzero"/></clipPath><clipPath id="090555eafc"><path d="M 580.121094 450.011719 L 565.550781 494.957031 L 537.726562 485.9375 L 552.296875 440.988281 Z M 580.121094 450.011719 " clip-rule="nonzero"/></clipPath><clipPath id="78f7ac74cb"><path d="M 580.121094 450.011719 L 565.550781 494.957031 L 537.726562 485.9375 L 552.296875 440.988281 Z M 580.121094 450.011719 " clip-rule="nonzero"/></clipPath><clipPath id="27931ec9b2"><path d="M 580.121094 450.011719 L 565.550781 494.957031 L 537.726562 485.9375 L 552.296875 440.988281 Z M 580.121094 450.011719 " clip-rule="nonzero"/></clipPath><clipPath id="b42e218226"><path d="M 546 444 L 573 444 L 573 476 L 546 476 Z M 546 444 " clip-rule="nonzero"/></clipPath><clipPath id="ecb2ff7c16"><path d="M 580.121094 450.011719 L 565.550781 494.957031 L 537.726562 485.9375 L 552.296875 440.988281 Z M 580.121094 450.011719 " clip-rule="nonzero"/></clipPath><clipPath id="a3135d9af8"><path d="M 580.121094 450.011719 L 565.550781 494.957031 L 537.726562 485.9375 L 552.296875 440.988281 Z M 580.121094 450.011719 " clip-rule="nonzero"/></clipPath><clipPath id="b573b491e1"><path d="M 580.121094 450.011719 L 565.550781 494.957031 L 537.726562 485.9375 L 552.296875 440.988281 Z M 580.121094 450.011719 " clip-rule="nonzero"/></clipPath><clipPath id="b871205e6c"><path d="M 569 460 L 576 460 L 576 468 L 569 468 Z M 569 460 " clip-rule="nonzero"/></clipPath><clipPath id="bdb5aadf18"><path d="M 580.121094 450.011719 L 565.550781 494.957031 L 537.726562 485.9375 L 552.296875 440.988281 Z M 580.121094 450.011719 " clip-rule="nonzero"/></clipPath><clipPath id="54bc668cd5"><path d="M 580.121094 450.011719 L 565.550781 494.957031 L 537.726562 485.9375 L 552.296875 440.988281 Z M 580.121094 450.011719 " clip-rule="nonzero"/></clipPath><clipPath id="bb0ac69cea"><path d="M 580.121094 450.011719 L 565.550781 494.957031 L 537.726562 485.9375 L 552.296875 440.988281 Z M 580.121094 450.011719 " clip-rule="nonzero"/></clipPath><clipPath id="75c6bf1d50"><path d="M 565 473 L 571 473 L 571 480 L 565 480 Z M 565 473 " clip-rule="nonzero"/></clipPath><clipPath id="b6ba63281b"><path d="M 580.121094 450.011719 L 565.550781 494.957031 L 537.726562 485.9375 L 552.296875 440.988281 Z M 580.121094 450.011719 " clip-rule="nonzero"/></clipPath><clipPath id="c83bc70e63"><path d="M 580.121094 450.011719 L 565.550781 494.957031 L 537.726562 485.9375 L 552.296875 440.988281 Z M 580.121094 450.011719 " clip-rule="nonzero"/></clipPath><clipPath id="7e0f60407d"><path d="M 580.121094 450.011719 L 565.550781 494.957031 L 537.726562 485.9375 L 552.296875 440.988281 Z M 580.121094 450.011719 " clip-rule="nonzero"/></clipPath></defs><path fill="#000000" d="M 330.761719 482.949219 L 332.5 482.949219 L 332.5 490.851562 L 330.761719 490.851562 Z M 330.761719 482.949219 " fill-opacity="1" fill-rule="nonzero"/><path fill="#000000" d="M 326.199219 602.515625 L 346.085938 594.6875 C 346.085938 594.6875 348.695312 598.277344 348.371094 602.515625 C 348.050781 606.753906 328.808594 671.640625 331.738281 676.507812 C 334.667969 681.375 353.101562 671.347656 353.839844 675.421875 C 354.578125 679.5 351.882812 679.011719 351.882812 679.011719 C 351.882812 679.011719 353.460938 679.609375 353.460938 680.367188 C 353.460938 681.128906 351.472656 681.644531 351.472656 681.644531 C 351.472656 681.644531 352.941406 681.644531 352.777344 682.570312 C 352.613281 683.492188 350.269531 683.953125 350.269531 683.953125 C 350.269531 683.953125 351.464844 684.003906 351.464844 684.820312 C 351.464844 685.640625 349.183594 686.398438 349.183594 686.398438 C 349.183594 686.398438 350.597656 685.960938 350.761719 686.832031 C 350.921875 687.699219 320.816406 700.960938 316.46875 696.285156 C 312.121094 691.609375 313.367188 686.613281 314.238281 683.460938 C 315.109375 680.308594 320.867188 662.648438 321.304688 651.558594 C 321.742188 640.46875 320.867188 628.519531 322.390625 620.039062 C 323.914062 611.558594 326.199219 602.515625 326.199219 602.515625 Z M 326.199219 602.515625 " fill-opacity="1" fill-rule="nonzero"/><path fill="#000000" d="M 286.957031 592.769531 C 286.957031 592.769531 275.65625 599.867188 270.4375 605.085938 C 265.21875 610.304688 256.816406 623.34375 251.015625 630.449219 C 245.214844 637.554688 232.609375 652.332031 239.421875 654.644531 C 246.234375 656.953125 274.496094 638.410156 272.902344 635.507812 C 271.308594 632.609375 266.65625 637.105469 266.65625 637.105469 C 266.65625 637.105469 268.246094 635.582031 267.414062 634.703125 C 266.582031 633.824219 264.804688 635.351562 264.804688 635.351562 C 264.804688 635.351562 266.761719 634.519531 266.21875 633.832031 C 265.675781 633.144531 263.898438 634.265625 263.898438 634.265625 C 263.898438 634.265625 264.660156 633.832031 264.589844 633.648438 C 264.519531 633.46875 282.761719 613.800781 285.796875 611.609375 C 288.835938 609.417969 298.117188 598.421875 299.421875 596.234375 " fill-opacity="1" fill-rule="nonzero"/><path fill="#000000" d="M 315.09375 543.714844 L 348.914062 588.925781 C 348.871094 590.1875 348.402344 599.640625 340.21875 605.882812 C 332.53125 611.746094 323.953125 610.269531 322.609375 610.015625 L 306.960938 592.769531 C 306.160156 594.199219 305.167969 595.476562 303.980469 596.605469 C 302.796875 597.734375 301.46875 598.660156 300 599.386719 C 293.953125 602.246094 286.226562 600.761719 280.21875 595.691406 C 280.726562 588.804688 281.230469 581.917969 281.738281 575.03125 C 281.738281 575.03125 276.230469 574.160156 273.441406 565.464844 L 302.171875 550.902344 Z M 315.09375 543.714844 " fill-opacity="1" fill-rule="nonzero"/><path fill="#000000" d="M 295.652344 511.457031 C 295.652344 511.457031 323.613281 487.105469 325.921875 487.398438 C 328.234375 487.691406 330.277344 486.820312 331.578125 488.703125 C 332.882812 490.585938 335.203125 494.644531 334.332031 496.390625 C 333.460938 498.132812 329.261719 500.714844 328.539062 499.429688 C 327.8125 498.148438 328.683594 495.953125 328.683594 495.953125 C 328.683594 495.953125 324.621094 497.542969 322.59375 499.429688 C 320.566406 501.320312 303.753906 522.621094 303.753906 522.621094 Z M 295.652344 511.457031 " fill-opacity="1" fill-rule="nonzero"/><path fill="#000000" d="M 253.042969 440.742188 C 253.042969 440.742188 259.570312 443.625 260.144531 449.726562 C 260.722656 455.828125 259.570312 455.8125 261.160156 457.550781 C 262.75 459.292969 267.101562 462.046875 266.519531 462.769531 C 265.941406 463.496094 263.335938 463.640625 262.753906 464.796875 C 262.171875 465.957031 265.945312 471.753906 262.609375 474.507812 C 259.277344 477.261719 241.597656 472.058594 241.597656 472.058594 L 235.675781 464.511719 L 230.003906 448.710938 L 242.613281 445.828125 Z M 253.042969 440.742188 " fill-opacity="1" fill-rule="nonzero"/><path fill="#000000" d="M 341.078125 473.945312 L 341.183594 474.050781 C 341.359375 474.226562 341.445312 474.4375 341.445312 474.679688 C 341.445312 474.925781 341.359375 475.136719 341.183594 475.308594 L 338.050781 478.445312 C 337.875 478.617188 337.664062 478.707031 337.421875 478.707031 C 337.175781 478.707031 336.964844 478.617188 336.792969 478.445312 L 336.683594 478.335938 C 336.507812 478.164062 336.421875 477.953125 336.421875 477.707031 C 336.421875 477.460938 336.507812 477.253906 336.683594 477.078125 L 339.820312 473.945312 C 339.992188 473.769531 340.203125 473.683594 340.449219 473.683594 C 340.691406 473.683594 340.902344 473.769531 341.078125 473.945312 Z M 341.078125 473.945312 " fill-opacity="1" fill-rule="nonzero"/><path fill="#000000" d="M 244.351562 469.441406 L 242.910156 462.046875 C 242.910156 462.046875 242.621094 463.785156 241.753906 463.785156 C 240.882812 463.785156 231.183594 459.875 236.246094 453.214844 C 241.308594 446.554688 245.230469 461.328125 245.230469 461.328125 L 246.671875 461.183594 C 246.671875 461.183594 244.933594 455.390625 246.671875 454.082031 C 247.707031 453.300781 248.867188 452.820312 250.152344 452.640625 C 250.152344 452.640625 248.710938 447.566406 250.152344 446.699219 C 251.59375 445.828125 283.917969 441.625 274.789062 423.796875 C 265.660156 405.972656 253.339844 425.105469 250.875 426.554688 C 248.410156 428.007812 231.019531 421.605469 221.015625 445.957031 C 211.011719 470.308594 238.988281 472.058594 238.988281 472.058594 Z M 244.351562 469.441406 " fill-opacity="1" fill-rule="nonzero"/><path fill="#000000" d="M 338.53125 474.414062 L 340.710938 476.59375 C 340.988281 476.875 341.207031 477.195312 341.359375 477.5625 C 341.507812 477.929688 341.585938 478.3125 341.585938 478.707031 C 341.585938 479.101562 341.507812 479.484375 341.359375 479.851562 C 341.207031 480.214844 340.988281 480.539062 340.710938 480.820312 L 339.59375 481.933594 L 333.191406 475.53125 L 334.304688 474.414062 C 334.585938 474.136719 334.910156 473.917969 335.273438 473.769531 C 335.640625 473.617188 336.023438 473.539062 336.417969 473.539062 C 336.816406 473.539062 337.195312 473.617188 337.5625 473.769531 C 337.929688 473.917969 338.25 474.136719 338.53125 474.414062 Z M 338.53125 474.414062 " fill-opacity="1" fill-rule="nonzero"/><path fill="#000000" d="M 323.71875 475.171875 L 324.589844 473.667969 L 331.429688 477.617188 L 330.558594 479.121094 Z M 323.71875 475.171875 " fill-opacity="1" fill-rule="nonzero"/><path fill="#000000" d="M 274.242188 487.40625 C 274.242188 487.40625 277.605469 484.800781 276.847656 483.277344 C 276.085938 481.753906 251.199219 461.320312 240.4375 467.84375 C 229.671875 474.371094 225.433594 486.101562 230.003906 496.867188 C 234.574219 507.628906 257.609375 533.382812 261.234375 542.84375 C 264.863281 552.304688 268.789062 567.621094 271.398438 568.277344 C 274.007812 568.929688 280.855469 569.90625 287.050781 565.011719 C 293.25 560.121094 296.835938 553.929688 303.683594 550.992188 C 310.527344 548.058594 318.355469 546.753906 318.683594 545.125 C 319.007812 543.496094 297.8125 502.082031 291.296875 499.148438 C 284.78125 496.210938 268.429688 495.886719 268.429688 495.886719 Z M 274.242188 487.40625 " fill-opacity="1" fill-rule="nonzero"/><path fill="#000000" d="M 340.101562 480.199219 C 340.101562 480.535156 340.070312 480.867188 340.003906 481.199219 C 339.9375 481.53125 339.839844 481.851562 339.710938 482.164062 C 339.582031 482.476562 339.425781 482.769531 339.238281 483.050781 C 339.050781 483.332031 338.835938 483.589844 338.597656 483.828125 C 338.359375 484.066406 338.101562 484.28125 337.820312 484.46875 C 337.539062 484.65625 337.242188 484.8125 336.933594 484.941406 C 336.621094 485.070312 336.300781 485.167969 335.96875 485.234375 C 335.636719 485.300781 335.304688 485.335938 334.964844 485.335938 C 334.628906 485.335938 334.296875 485.300781 333.964844 485.234375 C 333.632812 485.167969 333.3125 485.070312 333 484.941406 C 332.6875 484.8125 332.394531 484.65625 332.113281 484.46875 C 331.832031 484.28125 331.574219 484.066406 331.335938 483.828125 C 331.097656 483.589844 330.882812 483.332031 330.695312 483.050781 C 330.507812 482.769531 330.351562 482.476562 330.222656 482.164062 C 330.09375 481.851562 329.996094 481.53125 329.929688 481.199219 C 329.863281 480.867188 329.832031 480.535156 329.832031 480.199219 C 329.832031 479.859375 329.863281 479.527344 329.929688 479.195312 C 329.996094 478.863281 330.09375 478.542969 330.222656 478.230469 C 330.351562 477.921875 330.507812 477.625 330.695312 477.34375 C 330.882812 477.0625 331.097656 476.804688 331.335938 476.566406 C 331.574219 476.328125 331.832031 476.113281 332.113281 475.925781 C 332.394531 475.738281 332.6875 475.582031 333 475.453125 C 333.3125 475.324219 333.632812 475.226562 333.964844 475.160156 C 334.296875 475.09375 334.628906 475.0625 334.964844 475.0625 C 335.304688 475.0625 335.636719 475.09375 335.96875 475.160156 C 336.300781 475.226562 336.621094 475.324219 336.933594 475.453125 C 337.242188 475.582031 337.539062 475.738281 337.820312 475.925781 C 338.101562 476.113281 338.359375 476.328125 338.597656 476.566406 C 338.835938 476.804688 339.050781 477.0625 339.238281 477.34375 C 339.425781 477.625 339.582031 477.921875 339.710938 478.230469 C 339.839844 478.542969 339.9375 478.863281 340.003906 479.195312 C 340.070312 479.527344 340.101562 479.859375 340.101562 480.199219 Z M 340.101562 480.199219 " fill-opacity="1" fill-rule="nonzero"/><path fill="#000000" d="M 337.175781 480.199219 C 337.175781 480.492188 337.121094 480.773438 337.007812 481.042969 C 336.894531 481.3125 336.738281 481.554688 336.53125 481.761719 C 336.320312 481.96875 336.082031 482.128906 335.8125 482.238281 C 335.542969 482.351562 335.257812 482.40625 334.964844 482.40625 C 334.671875 482.40625 334.390625 482.351562 334.121094 482.238281 C 333.851562 482.128906 333.609375 481.96875 333.402344 481.761719 C 333.195312 481.554688 333.035156 481.3125 332.925781 481.042969 C 332.8125 480.773438 332.757812 480.492188 332.757812 480.199219 C 332.757812 479.90625 332.8125 479.621094 332.925781 479.351562 C 333.035156 479.082031 333.195312 478.84375 333.402344 478.636719 C 333.609375 478.425781 333.851562 478.269531 334.121094 478.15625 C 334.390625 478.042969 334.671875 477.988281 334.964844 477.988281 C 335.257812 477.988281 335.542969 478.042969 335.8125 478.15625 C 336.082031 478.269531 336.320312 478.425781 336.53125 478.636719 C 336.738281 478.84375 336.894531 479.082031 337.007812 479.351562 C 337.121094 479.621094 337.175781 479.90625 337.175781 480.199219 Z M 337.175781 480.199219 " fill-opacity="1" fill-rule="nonzero"/><path fill="#000000" d="M 329.054688 492.695312 C 329.054688 492.855469 329.027344 493.011719 328.964844 493.160156 C 328.902344 493.308594 328.816406 493.4375 328.703125 493.550781 C 328.589844 493.664062 328.457031 493.753906 328.308594 493.8125 C 328.160156 493.875 328.007812 493.90625 327.847656 493.90625 C 327.683594 493.90625 327.53125 493.875 327.382812 493.8125 C 327.234375 493.753906 327.101562 493.664062 326.988281 493.550781 C 326.875 493.4375 326.789062 493.308594 326.726562 493.160156 C 326.664062 493.011719 326.636719 492.855469 326.636719 492.695312 C 326.636719 492.535156 326.664062 492.378906 326.726562 492.230469 C 326.789062 492.082031 326.875 491.953125 326.988281 491.839844 C 327.101562 491.726562 327.234375 491.636719 327.382812 491.578125 C 327.53125 491.515625 327.683594 491.484375 327.847656 491.484375 C 328.007812 491.484375 328.160156 491.515625 328.308594 491.578125 C 328.457031 491.636719 328.589844 491.726562 328.703125 491.839844 C 328.816406 491.953125 328.902344 492.082031 328.964844 492.230469 C 329.027344 492.378906 329.054688 492.535156 329.054688 492.695312 Z M 329.054688 492.695312 " fill-opacity="1" fill-rule="nonzero"/><path fill="#000000" d="M 342.992188 476.519531 L 342.9375 476.578125 C 342.835938 476.679688 342.710938 476.730469 342.570312 476.730469 C 342.425781 476.730469 342.304688 476.679688 342.203125 476.578125 L 338.542969 472.917969 C 338.441406 472.816406 338.390625 472.695312 338.390625 472.550781 C 338.390625 472.410156 338.441406 472.285156 338.542969 472.1875 L 338.601562 472.128906 C 338.703125 472.027344 338.824219 471.976562 338.96875 471.976562 C 339.109375 471.976562 339.234375 472.027344 339.335938 472.128906 L 342.992188 475.785156 C 343.09375 475.886719 343.144531 476.011719 343.144531 476.152344 C 343.144531 476.296875 343.09375 476.417969 342.992188 476.519531 Z M 342.992188 476.519531 " fill-opacity="1" fill-rule="nonzero"/><g clip-path="url(#1c8976f08f)"><path fill="#000000" d="M 305.546875 535.679688 C 305.570312 512.191406 309.796875 488.679688 318.429688 466.835938 C 320.601562 461.390625 323.035156 456.054688 325.722656 450.832031 L 327.796875 446.949219 C 328.503906 445.664062 329.238281 444.40625 329.984375 443.132812 C 330.730469 441.859375 331.492188 440.617188 332.265625 439.371094 L 333.429688 437.507812 L 333.722656 437.027344 L 334.023438 436.546875 L 334.640625 435.632812 C 337.867188 430.730469 341.367188 426.03125 345.136719 421.535156 L 346.550781 419.847656 L 346.902344 419.425781 L 347.265625 419.019531 L 348.003906 418.195312 L 349.472656 416.5625 L 350.203125 415.746094 L 350.574219 415.335938 L 350.953125 414.9375 L 354.003906 411.777344 C 354.257812 411.507812 354.515625 411.253906 354.78125 411.003906 L 355.574219 410.238281 L 357.15625 408.710938 C 361.394531 404.667969 365.863281 400.898438 370.570312 397.410156 C 375.277344 393.921875 380.179688 390.734375 385.28125 387.855469 C 390.382812 384.976562 395.644531 382.421875 401.0625 380.195312 C 406.480469 377.96875 412.015625 376.082031 417.667969 374.542969 C 428.984375 371.472656 440.5 369.738281 452.21875 369.339844 C 463.90625 368.925781 475.507812 369.738281 487.027344 371.773438 C 487.136719 371.792969 487.226562 371.847656 487.296875 371.941406 C 487.363281 372.035156 487.386719 372.136719 487.371094 372.253906 C 487.351562 372.363281 487.292969 372.457031 487.199219 372.523438 C 487.109375 372.589844 487.003906 372.617188 486.890625 372.601562 C 475.421875 370.742188 463.882812 370.097656 452.277344 370.675781 C 440.6875 371.222656 429.316406 373.085938 418.164062 376.273438 C 412.621094 377.867188 407.195312 379.792969 401.894531 382.058594 C 396.589844 384.324219 391.449219 386.910156 386.464844 389.8125 C 381.484375 392.71875 376.699219 395.917969 372.117188 399.417969 C 367.53125 402.914062 363.179688 406.683594 359.0625 410.71875 L 357.53125 412.238281 L 356.757812 412.984375 C 356.496094 413.234375 356.242188 413.464844 356.003906 413.75 L 353.046875 416.898438 L 352.675781 417.292969 L 352.320312 417.695312 L 351.617188 418.507812 L 350.175781 420.132812 L 349.46875 420.945312 L 349.113281 421.351562 L 348.769531 421.769531 L 347.410156 423.441406 C 343.769531 427.902344 340.398438 432.554688 337.296875 437.40625 L 336.710938 438.308594 L 336.414062 438.761719 L 336.132812 439.242188 L 335.019531 441.085938 C 334.273438 442.316406 333.515625 443.535156 332.832031 444.800781 C 332.152344 446.0625 331.390625 447.300781 330.738281 448.566406 L 328.757812 452.410156 C 326.195312 457.558594 323.882812 462.816406 321.820312 468.1875 C 313.652344 489.683594 309.808594 512.742188 310.109375 535.6875 C 310.113281 535.992188 310.058594 536.28125 309.949219 536.5625 C 309.835938 536.84375 309.671875 537.09375 309.460938 537.308594 C 309.25 537.527344 309.007812 537.695312 308.726562 537.8125 C 308.449219 537.933594 308.160156 537.996094 307.859375 538 C 307.554688 538.003906 307.261719 537.949219 306.980469 537.835938 C 306.703125 537.722656 306.453125 537.5625 306.234375 537.351562 C 306.019531 537.140625 305.851562 536.894531 305.730469 536.617188 C 305.613281 536.339844 305.550781 536.050781 305.546875 535.746094 Z M 305.546875 535.679688 " fill-opacity="1" fill-rule="nonzero"/></g><path fill="#000000" d="M 272.191406 484.945312 C 272.191406 484.945312 280.304688 490.609375 283.929688 490.019531 C 299.144531 487.515625 316.601562 467.59375 316.683594 467.550781 C 316.808594 466.691406 317.128906 465.914062 317.644531 465.214844 C 318.359375 464.253906 319.566406 463.390625 319.890625 463.640625 C 320.105469 463.796875 319.933594 464.371094 319.726562 465.082031 C 319.527344 465.757812 319.242188 466.398438 318.875 467.003906 C 319.382812 466.734375 322.292969 465.082031 324.238281 465.5625 C 325.394531 465.851562 326.011719 466.144531 325.957031 467.117188 C 325.90625 468.09375 324.433594 469.675781 324.433594 469.675781 C 324.433594 469.675781 325.804688 470.054688 325.960938 471.199219 C 326.121094 472.34375 323.949219 473.152344 323.949219 473.152344 C 323.949219 473.152344 325.46875 472.671875 325.578125 473.75 C 325.769531 475.628906 323.175781 475.671875 323.175781 475.671875 C 323.175781 475.671875 325.347656 475.671875 325.621094 476.757812 C 325.917969 477.964844 319.613281 482.523438 315.339844 483.046875 C 311.316406 482.773438 299.777344 508.929688 291.570312 508.222656 C 283.363281 507.519531 261.296875 497.519531 261.296875 497.519531 C 261.761719 496.171875 262.347656 494.878906 263.0625 493.644531 C 263.773438 492.410156 264.59375 491.253906 265.527344 490.175781 C 266.460938 489.101562 267.488281 488.121094 268.609375 487.242188 C 269.730469 486.363281 270.921875 485.597656 272.191406 484.945312 Z M 272.191406 484.945312 " fill-opacity="1" fill-rule="nonzero"/><g clip-path="url(#2605f379c0)"><g clip-path="url(#7cccfd589e)"><g clip-path="url(#477ea471f8)"><g clip-path="url(#4b03aad0f7)"><path fill="#000000" d="M 442.199219 118.464844 C 437.933594 116.523438 433.625 114.679688 429.273438 112.929688 C 424.921875 111.183594 420.53125 109.539062 416.105469 107.996094 C 411.675781 106.449219 407.21875 105.007812 402.722656 103.667969 C 398.230469 102.324219 393.710938 101.089844 389.160156 99.953125 C 384.609375 98.820312 380.035156 97.792969 375.441406 96.867188 C 370.84375 95.945312 366.226562 95.125 361.59375 94.414062 C 356.957031 93.703125 352.308594 93.09375 347.648438 92.59375 C 342.984375 92.097656 338.3125 91.703125 333.632812 91.417969 C 328.953125 91.132812 324.269531 90.953125 319.582031 90.882812 C 314.890625 90.8125 310.203125 90.847656 305.515625 90.992188 C 300.832031 91.136719 296.148438 91.386719 291.472656 91.746094 C 286.796875 92.105469 282.132812 92.570312 277.480469 93.140625 C 272.824219 93.714844 268.1875 94.390625 263.5625 95.175781 C 258.941406 95.960938 254.335938 96.851562 249.753906 97.84375 C 245.171875 98.839844 240.617188 99.941406 236.082031 101.144531 C 231.550781 102.347656 227.050781 103.65625 222.578125 105.066406 C 218.105469 106.476562 213.667969 107.988281 209.265625 109.601562 C 204.863281 111.214844 200.5 112.929688 196.171875 114.742188 C 191.847656 116.558594 187.566406 118.46875 183.332031 120.480469 C 179.09375 122.488281 174.90625 124.59375 170.765625 126.796875 C 166.625 128.996094 162.539062 131.292969 158.5 133.679688 C 154.464844 136.070312 150.488281 138.550781 146.566406 141.121094 C 142.644531 143.691406 138.785156 146.351562 134.984375 149.097656 C 131.183594 151.847656 127.449219 154.679688 123.777344 157.597656 C 120.109375 160.519531 116.507812 163.519531 112.972656 166.605469 C 109.441406 169.6875 105.980469 172.851562 102.59375 176.09375 C 99.207031 179.335938 95.894531 182.65625 92.65625 186.050781 C 89.421875 189.441406 86.265625 192.910156 83.1875 196.449219 C 80.113281 199.988281 77.117188 203.59375 74.207031 207.269531 C 71.292969 210.945312 68.46875 214.6875 65.726562 218.492188 C 62.988281 222.296875 60.335938 226.164062 57.773438 230.089844 C 55.210938 234.015625 52.738281 238 50.355469 242.039062 C 47.808594 246.375 45.371094 250.765625 43.039062 255.21875 C 40.707031 259.671875 38.488281 264.175781 36.378906 268.738281 C 34.269531 273.300781 32.273438 277.910156 30.386719 282.566406 C 28.503906 287.226562 26.738281 291.929688 25.085938 296.675781 C 23.433594 301.421875 21.894531 306.207031 20.476562 311.027344 C 19.0625 315.847656 17.761719 320.699219 16.582031 325.585938 C 15.402344 330.472656 14.34375 335.382812 13.40625 340.320312 C 12.46875 345.253906 11.652344 350.210938 10.957031 355.1875 C 10.261719 360.167969 9.6875 365.15625 9.238281 370.160156 C 8.789062 375.167969 8.460938 380.179688 8.257812 385.203125 C 8.054688 390.222656 7.972656 395.246094 8.015625 400.269531 C 8.058594 405.292969 8.226562 410.316406 8.515625 415.332031 C 8.804688 420.347656 9.21875 425.355469 9.75 430.351562 C 10.285156 435.347656 10.945312 440.328125 11.722656 445.292969 C 12.503906 450.257812 13.40625 455.199219 14.429688 460.117188 C 15.449219 465.039062 16.59375 469.929688 17.855469 474.792969 C 19.117188 479.65625 20.5 484.488281 21.996094 489.28125 C 23.496094 494.078125 25.113281 498.832031 26.847656 503.550781 C 28.582031 508.265625 30.429688 512.9375 32.390625 517.5625 C 34.355469 522.191406 36.429688 526.765625 38.617188 531.289062 C 40.804688 535.8125 43.101562 540.277344 45.507812 544.691406 C 47.914062 549.101562 50.425781 553.449219 53.046875 557.738281 C 55.667969 562.023438 58.390625 566.246094 61.21875 570.398438 C 64.042969 574.554688 66.972656 578.636719 70 582.644531 C 73.027344 586.65625 76.152344 590.589844 79.375 594.445312 C 82.59375 598.300781 85.910156 602.074219 89.316406 605.769531 C 92.722656 609.464844 96.214844 613.070312 99.800781 616.59375 C 103.382812 620.117188 107.050781 623.546875 110.804688 626.890625 C 114.554688 630.230469 118.386719 633.480469 122.296875 636.632812 C 126.210938 639.789062 130.195312 642.84375 134.257812 645.800781 C 138.320312 648.757812 142.453125 651.617188 146.652344 654.371094 C 150.855469 657.128906 155.125 659.777344 159.457031 662.324219 C 162.496094 664.105469 165.570312 665.835938 168.671875 667.511719 C 171.773438 669.1875 174.902344 670.8125 178.058594 672.378906 C 181.214844 673.949219 184.398438 675.460938 187.609375 676.921875 C 190.820312 678.382812 194.054688 679.785156 197.3125 681.132812 C 200.570312 682.480469 203.847656 683.773438 207.152344 685.007812 C 210.453125 686.242188 213.777344 687.417969 217.121094 688.539062 C 220.464844 689.660156 223.824219 690.71875 227.203125 691.726562 C 230.582031 692.730469 233.980469 693.675781 237.390625 694.5625 C 240.804688 695.449219 244.230469 696.277344 247.671875 697.046875 C 251.113281 697.816406 254.566406 698.527344 258.03125 699.179688 C 261.496094 699.828125 264.972656 700.417969 268.457031 700.949219 C 271.941406 701.480469 275.4375 701.953125 278.9375 702.363281 C 282.441406 702.773438 285.949219 703.121094 289.460938 703.414062 C 292.976562 703.703125 296.496094 703.929688 300.015625 704.097656 C 303.539062 704.265625 307.0625 704.375 310.585938 704.421875 C 314.113281 704.46875 317.636719 704.453125 321.164062 704.378906 C 324.6875 704.304688 328.210938 704.171875 331.734375 703.976562 C 335.253906 703.777344 338.769531 703.523438 342.28125 703.207031 C 345.792969 702.886719 349.296875 702.511719 352.796875 702.074219 C 356.296875 701.636719 359.785156 701.136719 363.269531 700.578125 C 366.75 700.019531 370.222656 699.402344 373.679688 698.726562 C 377.140625 698.046875 380.589844 697.3125 384.023438 696.515625 C 387.457031 695.71875 390.878906 694.863281 394.285156 693.949219 C 397.691406 693.035156 401.078125 692.0625 404.449219 691.03125 C 407.824219 690 411.175781 688.914062 414.511719 687.765625 C 417.84375 686.621094 421.160156 685.417969 424.453125 684.15625 C 427.746094 682.894531 431.015625 681.578125 434.261719 680.203125 C 437.511719 678.832031 440.734375 677.402344 443.933594 675.917969 C 447.132812 674.433594 450.304688 672.894531 453.449219 671.300781 C 456.59375 669.707031 459.710938 668.0625 462.800781 666.359375 C 465.890625 664.660156 468.949219 662.90625 471.976562 661.097656 C 475.003906 659.292969 478 657.433594 480.964844 655.527344 C 476.488281 656.824219 471.984375 658.007812 467.445312 659.078125 C 462.910156 660.148438 458.347656 661.101562 453.761719 661.941406 C 449.175781 662.777344 444.574219 663.5 439.953125 664.105469 C 435.328125 664.707031 430.695312 665.195312 426.046875 665.566406 C 421.402344 665.933594 416.75 666.183594 412.089844 666.320312 C 407.429688 666.453125 402.769531 666.46875 398.109375 666.363281 C 393.449219 666.261719 388.796875 666.039062 384.148438 665.699219 C 379.5 665.359375 374.863281 664.902344 370.238281 664.328125 C 365.613281 663.753906 361.003906 663.0625 356.414062 662.253906 C 351.824219 661.445312 347.257812 660.519531 342.710938 659.480469 C 338.167969 658.4375 333.65625 657.285156 329.171875 656.015625 C 324.6875 654.746094 320.238281 653.363281 315.824219 651.867188 C 311.40625 650.371094 307.035156 648.765625 302.699219 647.046875 C 298.367188 645.328125 294.082031 643.503906 289.839844 641.570312 C 285.601562 639.632812 281.414062 637.59375 277.277344 635.445312 C 273.140625 633.296875 269.0625 631.046875 265.039062 628.691406 C 261.152344 626.40625 257.324219 624.027344 253.550781 621.554688 C 249.78125 619.085938 246.074219 616.519531 242.429688 613.867188 C 238.785156 611.214844 235.207031 608.46875 231.699219 605.640625 C 228.1875 602.8125 224.75 599.898438 221.382812 596.898438 C 218.019531 593.898438 214.726562 590.820312 211.511719 587.65625 C 208.296875 584.496094 205.160156 581.261719 202.101562 577.945312 C 199.046875 574.632812 196.074219 571.246094 193.183594 567.785156 C 190.292969 564.324219 187.488281 560.796875 184.773438 557.195312 C 182.058594 553.597656 179.429688 549.9375 176.894531 546.210938 C 174.355469 542.480469 171.914062 538.695312 169.5625 534.847656 C 167.210938 531 164.953125 527.097656 162.796875 523.140625 C 160.636719 519.183594 158.574219 515.175781 156.613281 511.117188 C 154.648438 507.058594 152.789062 502.953125 151.027344 498.800781 C 149.265625 494.652344 147.609375 490.460938 146.054688 486.226562 C 144.5 481.996094 143.046875 477.726562 141.703125 473.425781 C 140.355469 469.121094 139.117188 464.789062 137.984375 460.425781 C 136.851562 456.058594 135.828125 451.671875 134.910156 447.257812 C 133.992188 442.84375 133.183594 438.410156 132.484375 433.953125 C 131.785156 429.5 131.195312 425.03125 130.714844 420.546875 C 130.234375 416.066406 129.863281 411.574219 129.605469 407.070312 C 129.34375 402.570312 129.195312 398.066406 129.15625 393.554688 C 129.117188 389.046875 129.191406 384.539062 129.375 380.035156 C 129.554688 375.53125 129.851562 371.03125 130.253906 366.542969 C 130.65625 362.050781 131.171875 357.570312 131.792969 353.105469 C 132.417969 348.640625 133.152344 344.191406 133.992188 339.761719 C 134.835938 335.332031 135.785156 330.925781 136.84375 326.542969 C 137.902344 322.160156 139.066406 317.804688 140.339844 313.480469 C 141.609375 309.152344 142.988281 304.863281 144.472656 300.605469 C 145.953125 296.34375 147.539062 292.125 149.230469 287.945312 C 150.921875 283.765625 152.710938 279.628906 154.605469 275.535156 C 156.496094 271.441406 158.488281 267.398438 160.582031 263.40625 C 162.671875 259.410156 164.859375 255.46875 167.144531 251.582031 C 168.859375 248.675781 170.625 245.800781 172.441406 242.957031 C 174.261719 240.113281 176.132812 237.304688 178.054688 234.53125 C 179.972656 231.757812 181.945312 229.019531 183.96875 226.320312 C 185.992188 223.617188 188.0625 220.953125 190.179688 218.328125 C 192.300781 215.703125 194.46875 213.117188 196.683594 210.570312 C 198.898438 208.027344 201.160156 205.523438 203.46875 203.058594 C 205.773438 200.597656 208.125 198.175781 210.519531 195.800781 C 212.917969 193.425781 215.355469 191.09375 217.835938 188.804688 C 220.316406 186.519531 222.839844 184.28125 225.40625 182.085938 C 227.96875 179.890625 230.570312 177.746094 233.214844 175.644531 C 235.855469 173.546875 238.535156 171.5 241.253906 169.5 C 243.972656 167.5 246.726562 165.550781 249.515625 163.652344 C 252.304688 161.753906 255.128906 159.90625 257.984375 158.109375 C 260.84375 156.316406 263.734375 154.574219 266.652344 152.882812 C 269.574219 151.195312 272.527344 149.558594 275.507812 147.980469 C 278.488281 146.398438 281.5 144.875 284.535156 143.402344 C 287.574219 141.933594 290.636719 140.519531 293.726562 139.164062 C 296.816406 137.804688 299.929688 136.503906 303.066406 135.261719 C 306.203125 134.019531 309.359375 132.835938 312.542969 131.707031 C 315.722656 130.578125 318.921875 129.511719 322.140625 128.503906 C 325.363281 127.492188 328.597656 126.542969 331.855469 125.652344 C 335.109375 124.761719 338.378906 123.929688 341.664062 123.160156 C 344.949219 122.390625 348.246094 121.679688 351.558594 121.03125 C 354.871094 120.382812 358.191406 119.792969 361.523438 119.265625 C 364.855469 118.738281 368.199219 118.273438 371.546875 117.871094 C 374.898438 117.464844 378.253906 117.121094 381.617188 116.839844 C 384.980469 116.558594 388.347656 116.339844 391.714844 116.183594 C 395.085938 116.027344 398.460938 115.929688 401.832031 115.898438 C 405.207031 115.863281 408.582031 115.890625 411.953125 115.984375 C 415.328125 116.074219 418.695312 116.226562 422.0625 116.441406 C 425.429688 116.652344 428.792969 116.929688 432.148438 117.269531 C 435.507812 117.605469 438.855469 118.003906 442.199219 118.464844 Z M 442.199219 118.464844 " fill-opacity="1" fill-rule="nonzero"/></g></g></g></g><g clip-path="url(#0bccd8775b)"><g clip-path="url(#090555eafc)"><g clip-path="url(#78f7ac74cb)"><g clip-path="url(#27931ec9b2)"><path fill="#000000" d="M 556.496094 490.695312 C 561.617188 490.394531 565.964844 486.472656 567.679688 480.65625 L 567.089844 480.617188 C 566.492188 480.578125 565.945312 480.308594 565.550781 479.859375 C 565.15625 479.40625 564.957031 478.828125 564.996094 478.230469 L 565.210938 474.976562 C 565.222656 474.785156 565.257812 474.601562 565.316406 474.421875 C 565.425781 474.078125 565.621094 473.765625 565.886719 473.507812 C 566.058594 473.386719 566.222656 473.265625 566.386719 473.140625 C 566.753906 472.941406 567.167969 472.847656 567.59375 472.878906 L 568.261719 472.921875 C 568.207031 472.5 568.136719 472.085938 568.054688 471.679688 C 568.023438 471.523438 567.992188 471.367188 567.957031 471.210938 C 567.921875 471.050781 567.882812 470.894531 567.84375 470.738281 C 567.339844 468.746094 566.523438 466.925781 565.46875 465.355469 C 565.386719 465.226562 565.296875 465.101562 565.210938 464.976562 C 565.121094 464.851562 565.03125 464.730469 564.941406 464.609375 C 562.382812 461.230469 558.671875 459.203125 554.6875 459.4375 C 552.441406 459.570312 550.320312 460.402344 548.492188 461.835938 C 548.476562 462.292969 548.480469 462.738281 548.5 463.179688 C 548.816406 462.886719 549.144531 462.621094 549.488281 462.382812 C 550.625 461.59375 551.859375 461.15625 553.15625 461.078125 C 554.449219 461.003906 555.726562 461.292969 556.949219 461.945312 C 558.113281 462.566406 559.179688 463.484375 560.113281 464.679688 C 560.996094 465.804688 561.722656 467.125 562.273438 468.605469 C 562.300781 468.675781 562.328125 468.75 562.355469 468.824219 C 562.378906 468.890625 562.402344 468.960938 562.425781 469.027344 C 562.472656 469.171875 562.523438 469.316406 562.566406 469.460938 C 563.015625 470.894531 563.289062 472.40625 563.382812 473.972656 C 563.382812 473.992188 563.382812 474.011719 563.382812 474.027344 C 563.390625 474.179688 563.398438 474.332031 563.402344 474.484375 C 563.410156 474.632812 563.410156 474.777344 563.414062 474.921875 C 563.425781 476.390625 563.273438 477.832031 562.953125 479.207031 C 562.578125 480.832031 561.992188 482.304688 561.207031 483.589844 C 560.414062 484.882812 559.464844 485.921875 558.378906 486.675781 C 557.242188 487.464844 556.007812 487.902344 554.710938 487.980469 C 553.414062 488.054688 552.136719 487.765625 550.917969 487.113281 C 549.753906 486.492188 548.6875 485.574219 547.753906 484.378906 C 546.824219 483.195312 546.070312 481.800781 545.511719 480.234375 C 544.933594 478.617188 544.589844 476.882812 544.484375 475.085938 C 544.378906 473.285156 544.523438 471.523438 544.910156 469.851562 C 545.019531 469.378906 545.144531 468.921875 545.289062 468.480469 C 545.570312 467.617188 545.914062 466.808594 546.320312 466.054688 C 546.183594 465.523438 546.074219 464.984375 545.988281 464.433594 C 545.96875 464.460938 545.949219 464.488281 545.925781 464.519531 C 543.664062 467.617188 542.550781 471.628906 542.792969 475.820312 C 543.035156 480.007812 544.605469 483.863281 547.210938 486.675781 C 549.796875 489.46875 553.09375 490.894531 556.496094 490.695312 Z M 556.496094 490.695312 " fill-opacity="1" fill-rule="nonzero"/></g></g></g></g><g clip-path="url(#b42e218226)"><g clip-path="url(#ecb2ff7c16)"><g clip-path="url(#a3135d9af8)"><g clip-path="url(#b573b491e1)"><path fill="#000000" d="M 547.042969 465.609375 C 547.089844 465.792969 547.136719 465.972656 547.183594 466.152344 C 548.328125 470.253906 551.046875 473.527344 554.871094 474.765625 C 557.386719 475.582031 560.078125 475.394531 562.597656 474.375 C 562.59375 474.257812 562.585938 474.140625 562.582031 474.019531 C 562.5 472.652344 562.277344 471.328125 561.917969 470.082031 C 561.648438 470.328125 561.371094 470.558594 561.089844 470.773438 C 559.882812 471.691406 558.617188 472.316406 557.332031 472.621094 C 555.988281 472.941406 554.679688 472.902344 553.445312 472.503906 C 552.210938 472.101562 551.128906 471.367188 550.226562 470.316406 C 549.367188 469.316406 548.707031 468.070312 548.269531 466.617188 C 548.117188 466.113281 547.996094 465.589844 547.902344 465.054688 C 547.871094 464.875 547.84375 464.691406 547.816406 464.511719 C 547.792969 464.328125 547.773438 464.144531 547.753906 463.957031 C 547.707031 463.492188 547.683594 463.015625 547.679688 462.53125 C 547.679688 462.351562 547.679688 462.171875 547.6875 461.992188 C 547.6875 461.972656 547.6875 461.957031 547.6875 461.9375 C 547.691406 461.773438 547.699219 461.609375 547.707031 461.441406 C 547.796875 459.886719 548.097656 458.316406 548.597656 456.765625 C 549.15625 455.050781 549.929688 453.460938 550.894531 452.042969 C 551.835938 450.667969 552.917969 449.507812 554.113281 448.59375 C 555.320312 447.675781 556.582031 447.054688 557.867188 446.746094 C 559.214844 446.425781 560.523438 446.464844 561.757812 446.867188 C 562.992188 447.265625 564.074219 448.003906 564.976562 449.050781 C 565.835938 450.054688 566.492188 451.296875 566.929688 452.75 C 567.363281 454.191406 567.5625 455.765625 567.511719 457.429688 C 567.464844 459.148438 567.160156 460.886719 566.601562 462.601562 C 566.390625 463.261719 566.144531 463.898438 565.867188 464.515625 C 567.027344 466.144531 567.910156 468.011719 568.480469 470.023438 C 569.21875 469.152344 569.886719 468.183594 570.46875 467.128906 L 568.214844 462.554688 L 572.671875 460.351562 C 573.570312 453.25 570.171875 446.808594 564.53125 444.980469 C 557.804688 442.796875 550.167969 447.707031 547.507812 455.917969 C 546.792969 458.128906 546.507812 460.351562 546.601562 462.46875 C 546.613281 462.652344 546.621094 462.835938 546.636719 463.019531 C 546.652344 463.203125 546.667969 463.382812 546.6875 463.5625 C 546.746094 464.070312 546.824219 464.566406 546.921875 465.058594 C 546.960938 465.242188 547 465.425781 547.042969 465.609375 Z M 547.042969 465.609375 " fill-opacity="1" fill-rule="nonzero"/></g></g></g></g><g clip-path="url(#b871205e6c)"><g clip-path="url(#bdb5aadf18)"><g clip-path="url(#54bc668cd5)"><g clip-path="url(#bb0ac69cea)"><path fill="#000000" d="M 572.871094 461.148438 L 569.289062 462.917969 L 571.097656 466.59375 L 571.285156 466.972656 C 571.488281 467.390625 571.847656 467.703125 572.289062 467.855469 C 572.296875 467.855469 572.304688 467.859375 572.3125 467.863281 C 572.746094 468.003906 573.210938 467.96875 573.621094 467.765625 C 574.488281 467.339844 574.84375 466.289062 574.417969 465.421875 L 573.964844 464.507812 L 574.882812 464.054688 C 575.300781 463.847656 575.613281 463.488281 575.765625 463.046875 C 575.769531 463.039062 575.769531 463.03125 575.773438 463.023438 C 575.914062 462.585938 575.882812 462.121094 575.679688 461.710938 C 575.472656 461.292969 575.117188 460.980469 574.671875 460.828125 C 574.230469 460.679688 573.757812 460.710938 573.339844 460.917969 Z M 572.871094 461.148438 " fill-opacity="1" fill-rule="nonzero"/></g></g></g></g><g clip-path="url(#75c6bf1d50)"><g clip-path="url(#b6ba63281b)"><g clip-path="url(#c83bc70e63)"><g clip-path="url(#7e0f60407d)"><path fill="#000000" d="M 568.6875 473.75 L 567.542969 473.679688 C 567.160156 473.652344 566.789062 473.78125 566.496094 474.035156 C 566.207031 474.289062 566.035156 474.640625 566.011719 475.027344 L 565.796875 478.28125 C 565.746094 479.078125 566.347656 479.765625 567.144531 479.816406 L 568.230469 479.886719 L 568.382812 479.898438 C 568.769531 479.921875 569.140625 479.796875 569.429688 479.539062 C 569.628906 479.367188 569.769531 479.148438 569.851562 478.902344 C 569.886719 478.789062 569.910156 478.671875 569.917969 478.546875 L 570.128906 475.292969 C 570.15625 474.90625 570.027344 474.535156 569.773438 474.246094 C 569.519531 473.957031 569.167969 473.78125 568.785156 473.757812 Z M 568.6875 473.75 " fill-opacity="1" fill-rule="nonzero"/></g></g></g></g></svg>